<svg width="51" height="50" viewBox="0 0 51 50" fill="none" xmlns="http://www.w3.org/2000/svg">
<g clip-path="url(#clip0)">
<path d="M37.0587 10.8881C38.2856 10.342 39.5241 10.0651 40.763 10.0651C42.3691 10.0651 44.0135 10.55 45.6129 11.483C50.0027 6.45737 50.0028 0.0168457 50.0028 0.0168457C50.0028 0.0168457 40.9734 5.17192 35.2996 6.67026C36.2292 7.86812 36.8543 9.31274 37.0587 10.8881Z" fill="#7A61ED"/>
<path d="M4.39272 11.4832C5.99223 10.55 7.63676 10.0652 9.24282 10.0652C10.4817 10.0652 11.7202 10.3421 12.9469 10.8881C13.1513 9.31274 13.7764 7.86812 14.706 6.67026C9.03217 5.17192 0.0027771 0.0168457 0.0027771 0.0168457C0.0027771 0.0168457 0.0028747 6.45747 4.39272 11.4832Z" fill="#7A61ED"/>
<path d="M40.763 12.9948C39.91 12.9948 39.0918 13.2038 38.3316 13.5312C39.6732 16.256 40.4129 19.2003 40.5451 22.1687C40.6175 22.1718 40.6901 22.1734 40.7629 22.1734C44.7693 22.1734 48.0169 17.5842 48.0169 17.5842C48.0169 17.5842 44.7693 12.9948 40.763 12.9948Z" fill="#7A61ED"/>
<path d="M11.674 13.5311C10.9138 13.2037 10.0957 12.9948 9.24272 12.9948C5.23637 12.9948 1.98872 17.5841 1.98872 17.5841C1.98872 17.5841 5.23647 22.1733 9.24272 22.1733C9.31547 22.1733 9.38803 22.1717 9.4603 22.1687C9.59272 19.2003 10.3324 16.256 11.674 13.5311Z" fill="#7A61ED"/>
<path d="M34.4331 43.5963L34.2225 42.4964C34.1099 41.9085 34.0275 41.3168 33.9743 40.7239L31.2596 33.2417C30.3426 30.7145 30.2623 28.0163 31.0275 25.439C31.7926 22.8616 33.3322 20.6444 35.4795 19.0268L36.9105 17.9489C36.54 16.6573 36.0296 15.3966 35.3776 14.1903L34.2035 12.0181C34.2035 8.80881 31.6018 6.20715 28.3925 6.20715H21.613C18.4038 6.20715 15.8021 8.80881 15.8021 12.0181L14.628 14.1903C13.9759 15.3966 13.4656 16.6573 13.0951 17.9489L14.526 19.0268C16.6734 20.6444 18.2129 22.8616 18.978 25.439C19.7431 28.0163 19.6629 30.7145 18.7459 33.2417L16.0312 40.724C15.978 41.3169 15.8956 41.9085 15.783 42.4963L15.5723 43.5962C14.9376 46.9105 17.4778 49.9831 20.8522 49.9831H29.1532C32.5278 49.9832 35.0678 46.9106 34.4331 43.5963ZM23.3556 45.3152H20.4259V42.2031H23.3556V45.3152ZM29.5796 45.3152H26.6499V42.2031H29.5796V45.3152Z" fill="#7A61ED"/>
<path d="M16.1695 26.2732C15.584 24.3013 14.4062 22.6049 12.7632 21.3672L12.47 21.1463C12.0963 24.657 12.7121 28.2528 14.3252 31.5036C14.3789 31.6119 14.4317 31.7207 14.4832 31.8299C14.8225 32.5481 15.108 33.2864 15.3403 34.0388L15.9919 32.2428C16.6934 30.3093 16.7548 28.245 16.1695 26.2732Z" fill="#7A61ED"/>
<path d="M37.5356 21.1464L37.2424 21.3672C35.5995 22.6048 34.4215 24.3012 33.8362 26.2731C33.2508 28.245 33.3123 30.3092 34.0137 32.2428L34.6653 34.0387C34.8976 33.2864 35.183 32.5481 35.5222 31.8299C35.5738 31.7208 35.6265 31.612 35.6802 31.5037C37.2933 28.2528 37.9092 24.6571 37.5356 21.1464Z" fill="#7A61ED"/>
</g>
<defs>
<clipPath id="clip0">
<rect width="50" height="50" fill="white" transform="translate(0.0027771)"/>
</clipPath>
</defs>
</svg>
