<svg width="15" height="15" viewBox="0 0 15 15" fill="none" xmlns="http://www.w3.org/2000/svg">
<path d="M11.9618 2.88605L11.0054 13.7838H3.99434L3.0382 2.88605L1.82666 2.99225L2.80025 14.0876C2.85149 14.599 3.29522 15 3.8107 15H11.1891C11.7044 15 12.1483 14.5992 12.2004 14.0803L13.1733 2.99225L11.9618 2.88605Z" fill="white"/>
<path d="M9.72957 0H5.27012C4.71125 0 4.25659 0.454658 4.25659 1.01353V2.93921H5.47279V1.2162H9.52683V2.93918H10.743V1.0135C10.7431 0.454658 10.2884 0 9.72957 0Z" fill="white"/>
<path d="M13.9863 2.33112H1.01339C0.6775 2.33112 0.405273 2.60334 0.405273 2.93923C0.405273 3.27512 0.6775 3.54735 1.01339 3.54735H13.9864C14.3223 3.54735 14.5945 3.27512 14.5945 2.93923C14.5945 2.60334 14.3222 2.33112 13.9863 2.33112Z" fill="white"/>
</svg>
