<svg width="35" height="35" viewBox="0 0 35 35" fill="none" xmlns="http://www.w3.org/2000/svg">
<path d="M34.9791 7.23767L22.6754 17.483L35 25.6853V7.46859C35 7.38984 34.9919 7.313 34.9791 7.23767Z" fill="#BDBEC5" fill-opacity="0.8"/>
<path d="M21.566 18.4067L20.015 19.6983C19.2864 20.305 18.3932 20.6084 17.5001 20.6084C16.607 20.6084 15.7137 20.305 14.9851 19.6983L13.4341 18.4067L0 27.3474V27.5316C0 28.2945 0.620772 28.9153 1.38373 28.9153H33.6162C34.3792 28.9153 34.9999 28.2945 34.9999 27.5316V27.3474L21.566 18.4067Z" fill="#BDBEC5" fill-opacity="0.8"/>
<path d="M33.6214 6.08484C33.6197 6.08484 33.618 6.08484 33.6163 6.08484H1.38381C1.3821 6.08484 1.38046 6.08484 1.37875 6.08484C1.18338 6.08559 1.09882 6.33449 1.24894 6.45952L13.9146 17.0063C13.9161 17.0075 13.9176 17.0088 13.9191 17.01L15.8706 18.635C16.8148 19.4213 18.1855 19.4213 19.1296 18.635L33.7512 6.45952C33.9013 6.33442 33.8167 6.08552 33.6214 6.08484Z" fill="#BDBEC5" fill-opacity="0.8"/>
<path d="M0.0208496 7.23767C0.00813477 7.313 0 7.3897 0 7.46859V25.6853L12.3246 17.483L0.0208496 7.23767Z" fill="#BDBEC5" fill-opacity="0.8"/>
</svg>
