<svg width="15" height="15" viewBox="0 0 15 15" fill="none" xmlns="http://www.w3.org/2000/svg">
<g clip-path="url(#clip0)">
<path d="M12.3213 7.49996C12.0254 7.49996 11.7855 7.7398 11.7855 8.03568V13.3927C11.7855 13.6886 11.5457 13.9284 11.2498 13.9284H1.60712C1.31125 13.9284 1.0714 13.6886 1.0714 13.3927V2.67859C1.0714 2.38272 1.31125 2.14288 1.60712 2.14288H8.03561C8.33148 2.14288 8.57132 1.90303 8.57132 1.60716C8.57132 1.31128 8.33148 1.07147 8.03561 1.07147H1.60712C0.719532 1.07147 0 1.791 0 2.67859V13.3927C0 14.2803 0.719532 14.9998 1.60712 14.9998H11.2499C12.1374 14.9998 12.857 14.2803 12.857 13.3927V8.03565C12.857 7.7398 12.6171 7.49996 12.3213 7.49996Z" fill="white"/>
<path d="M14.3996 0.600794C14.0149 0.216089 13.4932 6.73237e-06 12.9492 6.95106e-05C12.4049 -0.00149994 11.8826 0.214959 11.4991 0.601139L4.44271 7.65691C4.38417 7.71589 4.34 7.78758 4.3136 7.86637L3.2422 11.0806C3.14869 11.3613 3.30046 11.6647 3.58117 11.7581C3.63563 11.7763 3.69267 11.7855 3.75005 11.7856C3.80755 11.7855 3.86471 11.7763 3.91933 11.7583L7.13356 10.6869C7.2125 10.6605 7.28423 10.6161 7.34302 10.5573L14.3993 3.50093C15.2002 2.70013 15.2003 1.40169 14.3996 0.600794ZM13.6419 2.74395L6.67767 9.70815L4.59698 10.4029L5.28965 8.32493L12.2565 1.36076C12.6395 0.978499 13.2599 0.979127 13.6422 1.36214C13.8248 1.5451 13.9277 1.79279 13.9284 2.05128C13.9291 2.31115 13.8259 2.56051 13.6419 2.74395Z" fill="white"/>
</g>
<defs>
<clipPath id="clip0">
<rect width="15" height="15" fill="white"/>
</clipPath>
</defs>
</svg>
