<svg width="24" height="22" viewBox="0 0 24 22" fill="none" xmlns="http://www.w3.org/2000/svg">
<path d="M22.3849 2.01213H8.50554C8.12396 0.843976 7.05199 0 5.79164 0C4.53129 0 3.45932 0.843976 3.07774 2.01213H0.911275C0.408008 2.01213 0 2.43268 0 2.95141C0 3.47015 0.408008 3.89069 0.911275 3.89069H3.0778C3.45938 5.05885 4.53135 5.90282 5.7917 5.90282C7.05205 5.90282 8.12402 5.05885 8.5056 3.89069H22.385C22.8883 3.89069 23.2963 3.47015 23.2963 2.95141C23.2963 2.43268 22.8883 2.01213 22.3849 2.01213ZM5.79164 4.02426C5.21772 4.02426 4.75078 3.54297 4.75078 2.95141C4.75078 2.35985 5.21772 1.87856 5.79164 1.87856C6.36556 1.87856 6.8325 2.35985 6.8325 2.95141C6.8325 3.54297 6.36556 4.02426 5.79164 4.02426Z" fill="white"/>
<path d="M22.3849 10.0608H20.2184C19.8368 8.89262 18.7648 8.04865 17.5045 8.04865C16.2442 8.04865 15.1722 8.89262 14.7907 10.0608H0.911275C0.408008 10.0608 0 10.4813 0 11.0001C0 11.5188 0.408008 11.9393 0.911275 11.9393H14.7907C15.1722 13.1075 16.2443 13.9515 17.5046 13.9515C18.7649 13.9515 19.8369 13.1075 20.2185 11.9393H22.385C22.8883 11.9393 23.2963 11.5188 23.2963 11.0001C23.2963 10.4813 22.8883 10.0608 22.3849 10.0608ZM17.5046 12.0729C16.9306 12.0729 16.4637 11.5916 16.4637 11.0001C16.4637 10.4085 16.9306 9.92721 17.5046 9.92721C18.0785 9.92721 18.5454 10.4085 18.5454 11.0001C18.5454 11.5916 18.0785 12.0729 17.5046 12.0729Z" fill="white"/>
<path d="M22.3849 18.1093H12.4099C12.0283 16.9411 10.9563 16.0972 9.69597 16.0972C8.43561 16.0972 7.36365 16.9411 6.98207 18.1093H0.911275C0.408008 18.1093 0 18.5298 0 19.0486C0 19.5673 0.408008 19.9879 0.911275 19.9879H6.98207C7.36365 21.156 8.43561 22 9.69597 22C10.9563 22 12.0283 21.156 12.4099 19.9879H22.385C22.8883 19.9879 23.2963 19.5673 23.2963 19.0486C23.2963 18.5298 22.8883 18.1093 22.3849 18.1093ZM9.69597 20.1215C9.12205 20.1215 8.65511 19.6402 8.65511 19.0486C8.65511 18.4571 9.12205 17.9758 9.69597 17.9758C10.2699 17.9758 10.7368 18.457 10.7368 19.0486C10.7368 19.6401 10.2699 20.1215 9.69597 20.1215Z" fill="white"/>
</svg>
