<svg width="35" height="35" viewBox="0 0 35 35" fill="none" xmlns="http://www.w3.org/2000/svg">
<g clip-path="url(#clip0)">
<path d="M15.1251 15.865H6.36822C2.85674 15.865 0 18.7217 0 22.2331V31.7553H17.4305V23.3262C17.4305 21.2821 18.7057 19.5313 20.5019 18.8243C19.3709 17.0469 17.3836 15.865 15.1251 15.865Z" fill="#BDBEC5" fill-opacity="0.8"/>
<path d="M10.7467 3.24463C7.78979 3.24463 5.38416 5.65026 5.38416 8.60715C5.38416 11.564 7.78979 13.9697 10.7467 13.9697C13.7036 13.9697 16.1092 11.564 16.1092 8.60715C16.1092 5.65026 13.7036 3.24463 10.7467 3.24463Z" fill="#BDBEC5" fill-opacity="0.8"/>
<path d="M31.545 19.8712H22.2676C20.3625 19.8712 18.8126 21.4211 18.8126 23.3262V31.7554H21.4934H35.0001V23.3262C35.0001 21.4212 33.4501 19.8712 31.545 19.8712Z" fill="#BDBEC5" fill-opacity="0.8"/>
<path d="M26.9062 9.78394C24.7235 9.78394 22.9478 11.5598 22.9478 13.7424C22.9478 15.9251 24.7235 17.7009 26.9062 17.7009C29.089 17.7009 30.8647 15.9251 30.8647 13.7424C30.8647 11.5597 29.089 9.78394 26.9062 9.78394Z" fill="#BDBEC5" fill-opacity="0.8"/>
</g>
<defs>
<clipPath id="clip0">
<rect width="35" height="35" fill="white"/>
</clipPath>
</defs>
</svg>
