<svg width="35" height="35" viewBox="0 0 35 35" fill="none" xmlns="http://www.w3.org/2000/svg">
<path d="M13.5956 16.1912C14.3134 16.1912 14.8936 15.6097 14.8936 14.8933V9.70159C14.8936 8.98644 15.475 8.40367 16.1915 8.40367L20.0852 8.40367L20.0852 27.8724C20.0852 28.9808 20.7913 29.9712 21.853 30.3398L22.2372 30.4683L16.1915 30.4683C15.475 30.4683 14.8936 29.8855 14.8936 29.1703V25.2766C14.8936 24.5601 14.3134 23.9787 13.5956 23.9787C12.8779 23.9787 12.2977 24.5601 12.2977 25.2766V29.1703C12.2977 31.3171 14.0447 33.0641 16.1915 33.0641H30.1441C30.1934 33.0641 30.2349 33.042 30.283 33.0355C30.3453 33.0407 30.405 33.0641 30.4686 33.0641C31.9002 33.0641 33.0644 31.8999 33.0644 30.4683V7.10576C33.0644 5.99734 32.3583 5.00703 31.2966 4.63842L23.4858 2.0348C23.221 1.95303 22.9575 1.91409 22.6811 1.91409C21.2495 1.91409 20.0852 3.07832 20.0852 4.50992V5.80784L16.1915 5.80784C14.0447 5.80784 12.2977 7.55484 12.2977 9.70159V14.8933C12.2977 15.6097 12.8779 16.1912 13.5956 16.1912Z" fill="#BDBEC5" fill-opacity="0.8"/>
<path d="M2.29467 21.0026L7.48634 26.1943C7.85754 26.5655 8.41565 26.6771 8.90107 26.4759C9.38519 26.2748 9.70188 25.801 9.70188 25.2767L9.70188 21.3829L14.8936 21.3829C15.61 21.3829 16.1915 20.8015 16.1915 20.085C16.1915 19.3686 15.61 18.7871 14.8936 18.7871L9.70188 18.7871L9.70188 14.8933C9.70188 14.369 9.38519 13.8952 8.90107 13.6941C8.41565 13.4929 7.85754 13.6045 7.48634 13.9757L2.29467 19.1674C1.78719 19.6749 1.78719 20.4951 2.29467 21.0026Z" fill="#BDBEC5" fill-opacity="0.8"/>
</svg>
