<svg width="411" height="406" fill="none" xmlns="http://www.w3.org/2000/svg">
	<path fill-rule="evenodd" clip-rule="evenodd" d="M206 411a206 206 0 11125-43c3-3 4-6 5-9v-15l-2-18A176 176 0 00206 29 177 177 0 0077 327a130 130 0 000 32c0 8 7 13 15 13 8-1 14-7 13-15v-7a176 176 0 00202 0v7c-1 7 5 14 13 15h1l7-2c-34 26-76 41-122 41zm101-61c10-7 19-15 27-24a130 130 0 00-257 1l28 23v-6c1-56 47-100 103-99a101 101 0 0199 105zm21 20zM147 143a57 57 0 10115 0 57 57 0 10-115 0zm59-29c-17 0-30 13-30 30 0 16 13 29 30 29a29 29 0 000-59z" fill="#F9FAFF" />
</svg>
