<svg width="30" height="30" viewBox="0 0 30 30" fill="none" xmlns="http://www.w3.org/2000/svg">
<path d="M29.9821 6.20367L19.436 14.9854L30 22.0159V6.4016C30 6.3341 29.993 6.26824 29.9821 6.20367Z" fill="white"/>
<path d="M18.4852 15.7772L17.1557 16.8842C16.5312 17.4043 15.7656 17.6644 15.0001 17.6644C14.2345 17.6644 13.4689 17.4043 12.8444 16.8842L11.515 15.7772L0 23.4406V23.5985C0 24.2525 0.53209 24.7845 1.18605 24.7845H28.8139C29.4679 24.7845 29.9999 24.2525 29.9999 23.5985V23.4406L18.4852 15.7772Z" fill="white"/>
<path d="M28.8185 5.21558C28.817 5.21558 28.8155 5.21558 28.8141 5.21558H1.18623C1.18476 5.21558 1.18335 5.21558 1.18189 5.21558C1.01443 5.21622 0.941949 5.42956 1.07062 5.53673L11.9269 14.5768C11.9282 14.5779 11.9295 14.579 11.9308 14.58L13.6035 15.9729C14.4128 16.6468 15.5876 16.6468 16.3969 15.9729L28.9297 5.53673C29.0584 5.4295 28.9859 5.21616 28.8185 5.21558Z" fill="white"/>
<path d="M0.0178711 6.20367C0.00697266 6.26824 0 6.33399 0 6.4016V22.0159L10.5639 14.9854L0.0178711 6.20367Z" fill="white"/>
</svg>
