<svg width="30" height="30" viewBox="0 0 30 30" fill="none" xmlns="http://www.w3.org/2000/svg">
<g clip-path="url(#clip0)">
<path d="M12.9644 13.5986H5.45848C2.44863 13.5986 0 16.0471 0 19.057V27.2189H14.9404V19.9939C14.9404 18.2418 16.0335 16.7411 17.573 16.1352C16.6037 14.6116 14.9002 13.5986 12.9644 13.5986Z" fill="white"/>
<path d="M9.21168 2.78107C6.67721 2.78107 4.61523 4.84304 4.61523 7.37751C4.61523 9.91198 6.67721 11.974 9.21168 11.974C11.7462 11.974 13.8081 9.91198 13.8081 7.37751C13.8081 4.84304 11.7462 2.78107 9.21168 2.78107Z" fill="white"/>
<path d="M27.0386 17.0325H19.0864C17.4535 17.0325 16.125 18.361 16.125 19.9939V27.2189H18.4229H30V19.9939C30 18.361 28.6715 17.0325 27.0386 17.0325Z" fill="white"/>
<path d="M23.0624 8.38623C21.1915 8.38623 19.6694 9.90838 19.6694 11.7792C19.6694 13.6501 21.1915 15.1722 23.0624 15.1722C24.9333 15.1722 26.4554 13.6501 26.4554 11.7792C26.4554 9.90832 24.9333 8.38623 23.0624 8.38623Z" fill="white"/>
</g>
<defs>
<clipPath id="clip0">
<rect width="30" height="30" fill="white"/>
</clipPath>
</defs>
</svg>
