<svg width="30" height="30" viewBox="0 0 30 30" fill="none" xmlns="http://www.w3.org/2000/svg">
<path d="M27.2775 0.01875C27.2463 0.01625 27.22 0 27.1875 0H13.75C11.6825 0 10 1.6825 10 3.75V5C10 5.69 10.56 6.25 11.25 6.25C11.94 6.25 12.5 5.69 12.5 5V3.75C12.5 3.06125 13.0612 2.5 13.75 2.5H19.5738L19.1925 2.6275C18.18 2.9775 17.5 3.93125 17.5 5V23.75H13.75C13.0612 23.75 12.5 23.1887 12.5 22.5V20C12.5 19.31 11.94 18.75 11.25 18.75C10.56 18.75 10 19.31 10 20V22.5C10 24.5675 11.6825 26.25 13.75 26.25H17.5V27.5C17.5 28.8787 18.6213 30 20 30C20.2675 30 20.5212 29.9612 20.7962 29.8762L28.3063 27.3725C29.32 27.0225 30 26.0687 30 25V2.5C30 1.0425 28.7438 -0.1 27.2775 0.01875Z" fill="white"/>
<path d="M13.3837 11.6162L8.38375 6.61624C8.02625 6.25874 7.48875 6.15124 7.02125 6.34499C6.555 6.53874 6.25 6.99499 6.25 7.49999V11.25H1.25C0.56 11.25 0 11.81 0 12.5C0 13.19 0.56 13.75 1.25 13.75H6.25V17.5C6.25 18.005 6.555 18.4612 7.02125 18.655C7.48875 18.8488 8.02625 18.7413 8.38375 18.3837L13.3837 13.3837C13.8725 12.895 13.8725 12.105 13.3837 11.6162Z" fill="white"/>
</svg>
