<svg width="30" height="30" viewBox="0 0 30 30" fill="none" xmlns="http://www.w3.org/2000/svg">
<path d="M11.6533 13.8781C12.2685 13.8781 12.7658 13.3797 12.7658 12.7656V8.31561C12.7658 7.70262 13.2642 7.20311 13.8783 7.20311H17.2158V23.8906C17.2158 24.8407 17.821 25.6895 18.731 26.0055L19.0603 26.1156H13.8783C13.2642 26.1156 12.7658 25.6161 12.7658 25.0031V21.6656C12.7658 21.0515 12.2685 20.5531 11.6533 20.5531C11.0381 20.5531 10.5408 21.0515 10.5408 21.6656V25.0031C10.5408 26.8432 12.0382 28.3406 13.8783 28.3406H25.8377C25.88 28.3406 25.9156 28.3217 25.9567 28.3161C26.0101 28.3206 26.0613 28.3406 26.1158 28.3406C27.3429 28.3406 28.3408 27.3427 28.3408 26.1156L28.3408 6.0906C28.3408 5.14053 27.7356 4.29169 26.8256 3.97574L20.1306 1.74407C19.9036 1.67398 19.6778 1.64061 19.4408 1.64061C18.2137 1.64061 17.2158 2.63852 17.2158 3.8656V4.97811H13.8783C12.0382 4.97811 10.5408 6.47553 10.5408 8.31561V12.7656C10.5408 13.3797 11.0381 13.8781 11.6533 13.8781Z" fill="white"/>
<path d="M1.96688 18.0021L6.41688 22.4521C6.73505 22.7703 7.21343 22.866 7.6295 22.6936C8.04447 22.5211 8.31592 22.1151 8.31592 21.6656L8.31592 18.3281L12.7659 18.3281C13.38 18.3281 13.8784 17.8297 13.8784 17.2156C13.8784 16.6015 13.38 16.1031 12.7659 16.1031L8.31592 16.1031L8.31592 12.7656C8.31592 12.3162 8.04447 11.9101 7.6295 11.7377C7.21343 11.5652 6.73505 11.6609 6.41688 11.9791L1.96688 16.4291C1.53189 16.8641 1.53189 17.5672 1.96688 18.0021Z" fill="white"/>
</svg>
