<svg width="30" height="30" viewBox="0 0 30 30" fill="none" xmlns="http://www.w3.org/2000/svg">
<path d="M22.2337 6.52277C22.9698 6.19512 23.7129 6.02895 24.4563 6.02895C25.4199 6.02895 26.4066 6.31986 27.3663 6.87967C30.0001 3.86432 30.0002 0 30.0002 0C30.0002 0 24.5825 3.09305 21.1782 3.99205C21.736 4.71076 22.1111 5.57754 22.2337 6.52277Z" fill="white"/>
<path d="M2.63396 6.87979C3.59367 6.31992 4.58039 6.029 5.54402 6.029C6.28734 6.029 7.03043 6.19518 7.76648 6.52277C7.88912 5.57754 8.26418 4.71076 8.82193 3.99205C5.41764 3.09305 0 0 0 0C0 0 5.85616e-05 3.86437 2.63396 6.87979Z" fill="white"/>
<path d="M24.4559 7.7868C23.9441 7.7868 23.4532 7.9122 22.9971 8.10866C23.802 9.74354 24.2459 11.5101 24.3252 13.2912C24.3686 13.293 24.4122 13.294 24.4559 13.294C26.8597 13.294 28.8083 10.5404 28.8083 10.5404C28.8083 10.5404 26.8597 7.7868 24.4559 7.7868Z" fill="white"/>
<path d="M7.00256 8.1086C6.54646 7.91214 6.05562 7.7868 5.54381 7.7868C3.14 7.7868 1.19141 10.5404 1.19141 10.5404C1.19141 10.5404 3.14006 13.2939 5.54381 13.2939C5.58746 13.2939 5.631 13.2929 5.67436 13.2912C5.75381 11.5101 6.1976 9.74354 7.00256 8.1086Z" fill="white"/>
<path d="M20.6583 26.1477L20.5319 25.4878C20.4644 25.1351 20.4149 24.78 20.383 24.4243L18.7542 19.935C18.204 18.4186 18.1558 16.7997 18.6149 15.2533C19.074 13.7069 19.9977 12.3766 21.2862 11.406L22.1447 10.7593C21.9224 9.98435 21.6162 9.22791 21.225 8.5041L20.5205 7.2008C20.5205 5.27523 18.9595 3.71423 17.0339 3.71423H12.9663C11.0407 3.71423 9.47969 5.27523 9.47969 7.2008L8.77521 8.5041C8.38398 9.22791 8.07777 9.98435 7.85547 10.7593L8.71404 11.406C10.0025 12.3766 10.9262 13.7069 11.3852 15.2533C11.8443 16.7997 11.7962 18.4186 11.246 19.935L9.61715 24.4244C9.58521 24.7801 9.53576 25.1351 9.4682 25.4877L9.34182 26.1477C8.96102 28.1362 10.4851 29.9798 12.5097 29.9798H17.4903C19.5151 29.9799 21.0391 28.1363 20.6583 26.1477ZM14.0118 27.179H12.254V25.3118H14.0118V27.179ZM17.7462 27.179H15.9884V25.3118H17.7462V27.179Z" fill="white"/>
<path d="M9.70016 15.7538C9.34889 14.5707 8.64219 13.5528 7.65641 12.8102L7.48045 12.6777C7.25627 14.7841 7.62576 16.9415 8.59362 18.8921C8.62584 18.9571 8.65748 19.0223 8.68842 19.0878C8.89198 19.5187 9.06325 19.9617 9.20264 20.4132L9.59364 19.3356C10.0145 18.1755 10.0514 16.9369 9.70016 15.7538Z" fill="white"/>
<path d="M22.5195 12.6777L22.3436 12.8102C21.3578 13.5528 20.651 14.5707 20.2998 15.7538C19.9486 16.9369 19.9854 18.1755 20.4063 19.3356L20.7973 20.4132C20.9367 19.9617 21.1079 19.5188 21.3114 19.0879C21.3424 19.0224 21.374 18.9571 21.4062 18.8921C22.3741 16.9416 22.7436 14.7842 22.5195 12.6777Z" fill="white"/>
</svg>
