<svg width="30" height="30" viewBox="0 0 30 30" fill="none" xmlns="http://www.w3.org/2000/svg">
<g clip-path="url(#clip0)">
<path d="M26.25 5.625V15C26.25 18.1012 23.7262 20.625 20.625 20.625H12.2906L8.16748 24.1575C8.54998 24.2888 8.95124 24.375 9.37502 24.375H18.4031L24.7012 29.775C24.8756 29.9231 25.0931 30 25.3125 30C25.4456 30 25.5806 29.9719 25.7044 29.9138C26.0381 29.7619 26.25 29.4281 26.25 29.0625V24.375C28.3181 24.375 30 22.6931 30 20.625V9.375C30 7.30688 28.3181 5.625 26.25 5.625Z" fill="white"/>
<path d="M20.625 0H3.75C1.68188 0 0 1.68188 0 3.75V15C0 17.0681 1.68188 18.75 3.75 18.75V23.4375C3.75 23.8031 3.96375 24.1369 4.29562 24.2888C4.42125 24.3469 4.55438 24.375 4.6875 24.375C4.90688 24.375 5.12438 24.2981 5.29688 24.15L11.5969 18.75H20.625C22.6931 18.75 24.375 17.0681 24.375 15V3.75C24.375 1.68188 22.6931 0 20.625 0ZM14.0625 11.25H6.5625C6.045 11.25 5.625 10.83 5.625 10.3125C5.625 9.795 6.045 9.375 6.5625 9.375H14.0625C14.58 9.375 15 9.795 15 10.3125C15 10.83 14.58 11.25 14.0625 11.25ZM17.8125 7.5H6.5625C6.045 7.5 5.625 7.08 5.625 6.5625C5.625 6.045 6.045 5.625 6.5625 5.625H17.8125C18.33 5.625 18.75 6.045 18.75 6.5625C18.75 7.08 18.33 7.5 17.8125 7.5Z" fill="white"/>
</g>
<defs>
<clipPath id="clip0">
<rect width="30" height="30" fill="white"/>
</clipPath>
</defs>
</svg>
