<svg width="30" height="30" viewBox="0 0 30 30" fill="none" xmlns="http://www.w3.org/2000/svg">
<path d="M3.55959 20.775C-1.18658 16.0288 -1.18648 8.30597 3.55959 3.5597C8.30586 -1.18657 16.0287 -1.18657 20.7747 3.5597C24.8013 7.58627 25.4111 13.5748 22.6059 18.2512C22.6059 18.2512 22.4044 18.5893 22.6765 18.8612C24.2291 20.4137 28.8871 25.0718 28.8871 25.0718C30.1233 26.3079 30.4176 28.0364 29.3213 29.1328L29.1326 29.3213C28.0364 30.4178 26.3077 30.1236 25.0717 28.8874C25.0717 28.8874 20.4235 24.2391 18.8741 22.6898C18.589 22.4046 18.251 22.6062 18.251 22.6062C13.5747 25.4113 7.58616 24.8016 3.55959 20.775ZM18.5274 18.5276C22.0344 15.0206 22.0343 9.31435 18.5273 5.80735C15.0203 2.30043 9.31405 2.30034 5.80714 5.80735C2.30014 9.31426 2.30014 15.0206 5.80714 18.5276C9.31415 22.0344 15.0203 22.0344 18.5274 18.5276Z" fill="white"/>
<path d="M11.8356 5.93124C13.5718 5.93124 14.9844 7.34369 14.9844 9.0799C14.9844 10.8161 13.5718 12.2285 11.8356 12.2285C10.0994 12.2285 8.68688 10.8161 8.68688 9.0799C8.68688 7.34369 10.0994 5.93124 11.8356 5.93124Z" fill="white"/>
<path d="M9.48148 12.297C9.57368 12.3139 9.63949 12.3697 9.69641 12.4187C10.2635 12.9072 11.0325 13.034 11.8356 13.034C12.6195 13.034 13.4614 12.9385 13.9654 12.4089C14.0252 12.346 14.0806 12.3087 14.1657 12.294C14.9827 12.1527 15.4595 13.3465 15.4595 14.2248V16.357C15.4595 17.5042 14.5262 18.4374 13.379 18.4374H10.2922C9.14506 18.4374 8.21177 17.5042 8.21177 16.357V14.2248C8.21148 13.3465 8.66542 12.1487 9.48148 12.297Z" fill="white"/>
</svg>
