<svg width="30" height="30" viewBox="0 0 30 30" fill="none" xmlns="http://www.w3.org/2000/svg">
<path d="M3.55959 20.775C-1.18658 16.0288 -1.18648 8.30597 3.55959 3.5597C8.30586 -1.18657 16.0287 -1.18657 20.7747 3.5597C24.8013 7.58627 25.4111 13.5748 22.6059 18.2512C22.6059 18.2512 22.4044 18.5893 22.6765 18.8612C24.2291 20.4137 28.8871 25.0718 28.8871 25.0718C30.1233 26.3079 30.4176 28.0364 29.3213 29.1328L29.1326 29.3213C28.0364 30.4178 26.3077 30.1236 25.0717 28.8874C25.0717 28.8874 20.4235 24.2391 18.8741 22.6898C18.589 22.4046 18.251 22.6062 18.251 22.6062C13.5747 25.4113 7.58616 24.8016 3.55959 20.775ZM18.5274 18.5276C22.0344 15.0206 22.0343 9.31435 18.5273 5.80735C15.0203 2.30043 9.31405 2.30034 5.80714 5.80735C2.30014 9.31426 2.30014 15.0206 5.80714 18.5276C9.31415 22.0344 15.0203 22.0344 18.5274 18.5276Z" fill="white"/>
<g clip-path="url(#clip0)">
<path d="M16.2809 7.54035H14.9542V7.05485C14.9542 6.74968 14.6765 6.5 14.3371 6.5C13.9977 6.5 13.72 6.74968 13.72 7.05485V7.54035H10.2951V7.05485C10.2951 6.74968 10.0174 6.5 9.67803 6.5C9.33863 6.5 9.06094 6.74968 9.06094 7.05485V7.54035H7.73419C7.05538 7.54035 6.5 8.03972 6.5 8.65006V16.3903C6.5 17.0006 7.05538 17.5 7.73419 17.5H16.2655C16.9443 17.5 17.4997 17.0006 17.4997 16.3903V8.65006C17.5151 8.03972 16.9597 7.54035 16.2809 7.54035ZM16.2655 16.3764H7.73419V11.7156H16.2655V16.3764Z" fill="white"/>
</g>
<defs>
<clipPath id="clip0">
<rect width="11" height="11" fill="white" transform="translate(6.5 6.5)"/>
</clipPath>
</defs>
</svg>
