<svg width="31" height="30" viewBox="0 0 31 30" fill="none" xmlns="http://www.w3.org/2000/svg">
<path d="M4.55715 20.775C-0.189022 16.0288 -0.188925 8.30597 4.55715 3.5597C9.30342 -1.18657 17.0262 -1.18657 21.7723 3.5597C25.7989 7.58627 26.4087 13.5748 23.6034 18.2512C23.6034 18.2512 23.4019 18.5893 23.6741 18.8612C25.2266 20.4137 29.8847 25.0718 29.8847 25.0718C31.1208 26.3079 31.4151 28.0364 30.3189 29.1328L30.1302 29.3213C29.0339 30.4178 27.3053 30.1236 26.0693 28.8874C26.0693 28.8874 21.4211 24.2391 19.8717 22.6898C19.5865 22.4046 19.2485 22.6062 19.2485 22.6062C14.5722 25.4113 8.58372 24.8016 4.55715 20.775ZM19.525 18.5276C23.032 15.0206 23.0319 9.31435 19.5249 5.80735C16.0178 2.30043 10.3116 2.30034 6.8047 5.80735C3.29769 9.31426 3.29769 15.0206 6.8047 18.5276C10.3117 22.0344 16.0178 22.0344 19.525 18.5276Z" fill="white"/>
<path d="M15.706 16.286C15.6127 16.062 15.51 15.8053 15.398 15.516C15.2953 15.2173 15.1833 14.9047 15.062 14.578C14.782 14.5873 14.488 14.5967 14.18 14.606C13.872 14.606 13.5593 14.606 13.242 14.606C12.8407 14.606 12.4767 14.606 12.15 14.606C11.8233 14.606 11.5247 14.6013 11.254 14.592C11.142 14.9187 11.0347 15.2267 10.932 15.516C10.8293 15.8053 10.7313 16.062 10.638 16.286C10.4513 16.762 10.1807 17 9.826 17C9.69533 17 9.56933 16.958 9.448 16.874C9.336 16.79 9.28 16.6687 9.28 16.51C9.28 16.3513 9.308 16.146 9.364 15.894C9.42 15.6327 9.49 15.3573 9.574 15.068C9.66733 14.7693 9.76533 14.466 9.868 14.158C9.97067 13.8407 10.0687 13.5467 10.162 13.276C10.2553 12.9773 10.386 12.5993 10.554 12.142C10.7313 11.6753 10.918 11.19 11.114 10.686C11.31 10.182 11.506 9.68733 11.702 9.202C11.898 8.70733 12.0753 8.278 12.234 7.914C12.2713 7.82067 12.318 7.718 12.374 7.606C12.43 7.48467 12.4953 7.37267 12.57 7.27C12.654 7.16733 12.7427 7.07867 12.836 7.004C12.9387 6.92933 13.0507 6.892 13.172 6.892C13.2933 6.892 13.4053 6.934 13.508 7.018C13.6107 7.09267 13.6993 7.186 13.774 7.298C13.858 7.41 13.928 7.52667 13.984 7.648C14.0493 7.76933 14.1007 7.87667 14.138 7.97C14.2873 8.34333 14.4553 8.77267 14.642 9.258C14.838 9.74333 15.0293 10.2333 15.216 10.728C15.412 11.2227 15.594 11.694 15.762 12.142C15.93 12.59 16.0653 12.968 16.168 13.276C16.252 13.5467 16.3453 13.836 16.448 14.144C16.56 14.452 16.6627 14.7553 16.756 15.054C16.8493 15.3527 16.924 15.6327 16.98 15.894C17.0453 16.146 17.078 16.3513 17.078 16.51C17.078 16.6687 17.0173 16.79 16.896 16.874C16.784 16.958 16.6627 17 16.532 17C16.364 17 16.21 16.944 16.07 16.832C15.93 16.7107 15.8087 16.5287 15.706 16.286ZM13.228 13.206C13.452 13.206 13.676 13.2107 13.9 13.22C14.124 13.22 14.348 13.2247 14.572 13.234C14.46 12.9073 14.348 12.5807 14.236 12.254C14.124 11.9273 14.0167 11.6147 13.914 11.316C13.8207 11.0173 13.732 10.742 13.648 10.49C13.5733 10.2287 13.508 10 13.452 9.804C13.4147 9.68267 13.3727 9.58467 13.326 9.51C13.2793 9.43533 13.2187 9.398 13.144 9.398C13.0693 9.398 13.0087 9.44 12.962 9.524C12.9153 9.59867 12.8733 9.69667 12.836 9.818C12.724 10.2007 12.5653 10.7 12.36 11.316C12.164 11.9227 11.954 12.562 11.73 13.234C11.982 13.2247 12.234 13.22 12.486 13.22C12.738 13.2107 12.9853 13.206 13.228 13.206Z" fill="white"/>
</svg>
