<svg width="41" height="41" viewBox="0 0 41 41" fill="none" xmlns="http://www.w3.org/2000/svg">
<path d="M40.0698 8.74131C39.8764 8.40631 39.5018 8.21887 39.118 8.2647L5.89396 12.2271C5.51382 12.2725 5.19629 12.5379 5.08405 12.9039C4.97189 13.27 5.08632 13.6677 5.37578 13.9182L15.6711 22.8278L18.2394 36.1986C18.3094 36.5633 18.5817 36.8545 18.9384 36.9501C18.9494 36.953 18.9606 36.9558 18.9719 36.9584C19.3449 37.0443 19.7336 36.902 19.9629 36.5954L40.0066 9.80389C40.2382 9.49416 40.2631 9.07625 40.0698 8.74131ZM8.29576 13.888L34.67 10.7425L16.6697 21.1349L8.29576 13.888ZM19.7255 33.685L17.6365 22.8093L35.6368 12.417L19.7255 33.685Z" fill="white"/>
</svg>
